<?xml version="1.0" encoding="UTF-8"?>
<!DOCTYPE svg PUBLIC "-//W3C//DTD SVG 1.1//EN" "http://www.w3.org/Graphics/SVG/1.1/DTD/svg11.dtd">
<!-- Creator: CorelDRAW (Evaluation Version) -->
<svg xmlns="http://www.w3.org/2000/svg" xml:space="preserve" width="8.5in" height="11in" version="1.1" style="shape-rendering:geometricPrecision; text-rendering:geometricPrecision; image-rendering:optimizeQuality; fill-rule:evenodd; clip-rule:evenodd"
viewBox="0 0 8500 11000"
 xmlns:xlink="http://www.w3.org/1999/xlink"
 xmlns:xodm="http://www.corel.com/coreldraw/odm/2003">
 <defs>
  <style type="text/css">
   <![CDATA[
    .fil0 {fill:#495D21;fill-rule:nonzero}
    .fil2 {fill:#B8D457;fill-rule:nonzero}
    .fil1 {fill:white;fill-rule:nonzero}
   ]]>
  </style>
 </defs>
 <g id="Layer_x0020_1">
  <metadata id="CorelCorpID_0Corel-Layer"/>
  <g id="_105553124310304">
   <path class="fil0" d="M6610.67 5145.35c508.57,-202.26 1838.67,-1045.49 1654.31,-2725.28 9.2,48.83 11.72,83.26 12.38,98.69 0.02,3.08 0.26,6.04 0.26,9.16 0,0 0.02,-3.13 -0.26,-9.16 -0.13,-19.84 -0.81,-39.32 -1.59,-58.78 56,606 10.89,1791.49 -1016.91,2562.35 -205.63,154.19 -460.39,288.28 -749.88,399.25 -43.86,-188.94 101.69,-276.23 101.69,-276.23z"/>
   <path class="fil0" d="M2514.4 5388.65c632.79,151.94 1291.9,195.8 1841.37,195.8 746.67,0 1291.1,-80.86 1291.1,-80.86 48.6,46.6 101.87,88.65 158.12,127.03 -1595.54,354.9 -3748.01,124.08 -4928.95,-1043.83 352.57,326.66 800.15,550.65 1279.16,702.37 204.31,68.03 343.85,96.49 359.2,99.5z"/>
   <path class="fil0" d="M8216.45 2074.28c0,0 0.77,3.08 2.02,8.44 -0.76,-2.8 -1.57,-5.55 -2.36,-8.34l0.34 -0.1z"/>
   <path class="fil1" d="M6829.83 5922.8c-294.34,-42.19 -824.02,-157.72 -1141.74,-462.21l-21.08 -20.15 -28.87 4.23c-5.41,0.81 -549.26,80.22 -1282.37,80.22 -720.89,0 -1758.72,-78.4 -2609.15,-452.07 -24.14,-10.58 -47.85,-21.51 -71.43,-32.5 -2119.23,-1207.09 -1609.52,-4015.87 1703.71,-4246.34 3455.37,-240.38 4473.43,717.19 4773.39,1305.04 168.58,772.83 40.08,1461.26 -383.39,2049.4 -351.66,488.36 -855.58,812.47 -1180.24,941.59l-4.48 1.79 -4.12 2.47c-5.44,3.26 -133.4,81.84 -138.73,247.72 -5.57,173.64 124.92,368.49 388.5,580.81z"/>
   <path class="fil2" d="M132.26 3001.72c56.82,695.39 337.16,1208.36 743.78,1585.07 352.57,326.66 800.15,550.65 1279.16,702.37 204.31,68.03 343.85,96.49 359.2,99.5 632.79,151.94 1291.9,195.8 1841.37,195.8 746.67,0 1291.1,-80.86 1291.1,-80.86 48.6,46.6 101.87,88.65 158.12,127.03 496.47,338.84 1235.68,374.57 1235.68,374.57 -366.11,-252.76 -499.61,-445.39 -531.69,-583.6 -43.86,-188.94 101.69,-276.23 101.69,-276.23 508.57,-202.26 1838.67,-1045.49 1654.31,-2725.28 9.2,48.83 11.72,83.26 12.38,98.69 -0.13,-19.84 -0.81,-39.32 -1.59,-58.78 -5.4,-135.2 -25.94,-260.97 -57.3,-377.26 -0.76,-2.8 -1.57,-5.55 -2.36,-8.34 -11.11,-40.39 -23.24,-79.87 -36.74,-117.92 -10.17,-39.7 -20.89,-79.66 -32.74,-120.18 -92.38,-316.21 -336.34,-585.11 -684.37,-803.51 -88.15,-58.35 -186.77,-111.73 -293.01,-160.58 -703.68,-338.04 -1692.51,-516.26 -2707.46,-516.26 -2179.35,0 -4478.55,821.63 -4329.53,2645.78zm6309.07 2340.28l0 0c-5.57,173.64 124.92,368.49 388.5,580.81 -294.34,-42.19 -824.02,-157.72 -1141.74,-462.21l-21.08 -20.15 -28.87 4.23c-5.41,0.81 -549.26,80.22 -1282.37,80.22 -720.89,0 -1758.72,-78.4 -2609.15,-452.07 -24.14,-10.58 -47.85,-21.51 -71.43,-32.5 -2119.23,-1207.09 -1609.52,-4015.87 1703.71,-4246.34 3455.37,-240.38 4473.43,717.19 4773.39,1305.04 168.58,772.83 40.08,1461.26 -383.39,2049.4 -351.66,488.36 -855.58,812.47 -1180.24,941.59l-4.48 1.79 -4.12 2.47c-5.44,3.26 -133.4,81.84 -138.73,247.72z"/>
   <path class="fil2" d="M8277.36 2518.76c0.28,6.02 0.26,9.16 0.26,9.16 0,-3.11 -0.24,-6.08 -0.26,-9.16z"/>
  </g>
 </g>
</svg>
